<svg width="51" height="62" viewBox="0 0 51 62" fill="none" xmlns="http://www.w3.org/2000/svg">
<rect x="1" y="1" width="49" height="60" rx="4" stroke="#9C9AB1" stroke-width="2"/>
<path d="M14.9694 26.8508C14.9694 26.8508 13.6345 27.5258 13.6345 29.5509C13.6345 31.5761 15.6369 32.2511 15.6369 32.2511C15.6369 37.2379 22.9788 40.3515 24.9812 40.3515C26.9835 40.3515 34.3255 37.2379 34.3255 32.2511C34.3255 32.2511 36.3278 31.5761 36.3278 29.5509C36.3278 27.5258 34.9929 26.8508 34.9929 26.8508M14.9694 26.8508C14.9694 26.8508 14.302 26.8508 14.302 22.8006C14.302 18.7504 16.9718 12 24.9812 12C32.9906 12 35.6604 18.7504 35.6604 22.8006C35.6604 25.5007 34.9929 26.8508 34.9929 26.8508M14.9694 26.8508C14.9694 26.8508 16.3043 28.2009 18.3067 28.2009C18.3067 28.2009 17.6392 22.8006 19.6416 21.4505C20.9765 24.1507 24.9812 26.8508 27.651 26.8508C27.651 26.8508 26.3161 24.1507 27.651 22.8006C28.9859 26.1758 32.9906 26.8508 34.9929 26.8508M27.651 39.6422L28.9859 44.4017C28.9859 44.4017 36.6381 45.8849 38.819 47.6533C41 49.4217 41 51 41 51M22.349 39.6422L21.0141 44.4018C21.0141 44.4018 13.3619 45.8849 11.181 47.6533C9 49.4217 9 51 9 51" stroke="#9C9AB1" stroke-width="2" stroke-miterlimit="10"/>
</svg>
